# xmcd
#
# Track frame offsets:
#	150
#	16163
#	37063
#	52335
#	80420
#	108678
#	185708
#
# Disc length: 2912 seconds
#
# Revision: 1
# Processed by: cddbd v1.5.2PL0 Copyright (c) Steve Scherf et al.
# Submitted via: audiograbber 1.83.01
#
DISCID=600b5e07
DTITLE=The Guess Who - Live At The Paramount
DYEAR=1989
DGENRE=Blues
TTITLE0=Albert Flasher
TTITLE1=New Mother Nature
TTITLE2=Glace Bay Blues
TTITLE3=Runnin' Back to Saskatoon
TTITLE4=Pain Train
TTITLE5=American Woman
TTITLE6=Trunkin' Off Across The Sky
EXTD=YEAR: 1989
EXTT0=
EXTT1=
EXTT2=
EXTT3=
EXTT4=
EXTT5=
EXTT6=
PLAYORDER=
